<svg width="1531" height="1083" viewBox="0 0 1531 1083" fill="none" xmlns="http://www.w3.org/2000/svg">
<path d="M1530.16 0H0V1082.43H1530.16V0Z" fill="url(#paint0_linear_615_32784)"/>
<g opacity="0.5">
<g opacity="0.6">
<path opacity="0.6" d="M25.8901 171.3H65.3801V210.79H49.5701V187.11H25.8901V171.3Z" fill="white"/>
</g>
<path d="M25.8901 31.24H65.3801V70.73H49.5701V47.05H25.8901V31.24Z" fill="white"/>
<g opacity="0.3">
<path opacity="0.3" d="M25.8901 101.27H65.3801V140.76H49.5701V117.08H25.8901V101.27Z" fill="white"/>
</g>
<g opacity="0.6">
<path opacity="0.6" d="M25.8901 381.4H65.3801V420.89H49.5701V397.21H25.8901V381.4Z" fill="white"/>
</g>
<path d="M25.8901 241.34H65.3801V280.83H49.5701V257.15H25.8901V241.34Z" fill="white"/>
<g opacity="0.3">
<path opacity="0.3" d="M25.8901 311.37H65.3801V350.86H49.5701V327.18H25.8901V311.37Z" fill="white"/>
</g>
<g opacity="0.6">
<path opacity="0.6" d="M25.8901 591.5H65.3801V630.99H49.5701V607.31H25.8901V591.5Z" fill="white"/>
</g>
<path d="M25.8901 451.43H65.3801V490.92H49.5701V467.24H25.8901V451.43Z" fill="white"/>
<g opacity="0.3">
<path opacity="0.3" d="M25.8901 521.47H65.3801V560.95H49.5701V537.27H25.8901V521.47Z" fill="white"/>
</g>
<g opacity="0.6">
<path opacity="0.6" d="M25.8901 801.59H65.3801V841.08H49.5701V817.4H25.8901V801.59Z" fill="white"/>
</g>
<path d="M25.8901 661.53H65.3801V701.02H49.5701V677.34H25.8901V661.53Z" fill="white"/>
<g opacity="0.3">
<path opacity="0.3" d="M25.8901 731.56H65.3801V771.05H49.5701V747.37H25.8901V731.56Z" fill="white"/>
</g>
<g opacity="0.6">
<path opacity="0.6" d="M25.8901 1011.69H65.3801V1051.18H49.5701V1027.5H25.8901V1011.69Z" fill="white"/>
</g>
<path d="M25.8901 871.63H65.3801V911.12H49.5701V887.44H25.8901V871.63Z" fill="white"/>
<g opacity="0.3">
<path opacity="0.3" d="M25.8901 941.66H65.3801V981.15H49.5701V957.47H25.8901V941.66Z" fill="white"/>
</g>
<path d="M88.4502 171.3H127.94V210.79H112.13V187.11H88.4502V171.3Z" fill="white"/>
<g opacity="0.6">
<path opacity="0.6" d="M88.4502 31.24H127.94V70.73H112.13V47.05H88.4502V31.24Z" fill="white"/>
</g>
<path d="M88.4502 101.27H127.94V140.76H112.13V117.08H88.4502V101.27Z" fill="white"/>
<path d="M88.4502 381.4H127.94V420.89H112.13V397.21H88.4502V381.4Z" fill="white"/>
<g opacity="0.6">
<path opacity="0.6" d="M88.4502 241.34H127.94V280.83H112.13V257.15H88.4502V241.34Z" fill="white"/>
</g>
<path d="M88.4502 311.37H127.94V350.86H112.13V327.18H88.4502V311.37Z" fill="white"/>
<path d="M88.4502 591.5H127.94V630.99H112.13V607.31H88.4502V591.5Z" fill="white"/>
<g opacity="0.6">
<path opacity="0.6" d="M88.4502 451.43H127.94V490.92H112.13V467.24H88.4502V451.43Z" fill="white"/>
</g>
<path d="M88.4502 521.47H127.94V560.95H112.13V537.27H88.4502V521.47Z" fill="white"/>
<path d="M88.4502 801.59H127.94V841.08H112.13V817.4H88.4502V801.59Z" fill="white"/>
<g opacity="0.6">
<path opacity="0.6" d="M88.4502 661.53H127.94V701.02H112.13V677.34H88.4502V661.53Z" fill="white"/>
</g>
<path d="M88.4502 731.56H127.94V771.05H112.13V747.37H88.4502V731.56Z" fill="white"/>
<path d="M88.4502 1011.69H127.94V1051.18H112.13V1027.5H88.4502V1011.69Z" fill="white"/>
<g opacity="0.6">
<path opacity="0.6" d="M88.4502 871.63H127.94V911.12H112.13V887.44H88.4502V871.63Z" fill="white"/>
</g>
<path d="M88.4502 941.66H127.94V981.15H112.13V957.47H88.4502V941.66Z" fill="white"/>
<g opacity="0.3">
<path opacity="0.3" d="M151.01 171.3H190.5V210.79H174.69V187.11H151.01V171.3Z" fill="white"/>
</g>
<path d="M151.01 31.24H190.5V70.73H174.69V47.05H151.01V31.24Z" fill="white"/>
<path d="M151.01 101.27H190.5V140.76H174.69V117.08H151.01V101.27Z" fill="white"/>
<g opacity="0.3">
<path opacity="0.3" d="M151.01 381.4H190.5V420.89H174.69V397.21H151.01V381.4Z" fill="white"/>
</g>
<path d="M151.01 241.34H190.5V280.83H174.69V257.15H151.01V241.34Z" fill="white"/>
<path d="M151.01 311.37H190.5V350.86H174.69V327.18H151.01V311.37Z" fill="white"/>
<g opacity="0.3">
<path opacity="0.3" d="M151.01 591.5H190.5V630.99H174.69V607.31H151.01V591.5Z" fill="white"/>
</g>
<path d="M151.01 451.43H190.5V490.92H174.69V467.24H151.01V451.43Z" fill="white"/>
<path d="M151.01 521.47H190.5V560.95H174.69V537.27H151.01V521.47Z" fill="white"/>
<g opacity="0.3">
<path opacity="0.3" d="M151.01 801.59H190.5V841.08H174.69V817.4H151.01V801.59Z" fill="white"/>
</g>
<path d="M151.01 661.53H190.5V701.02H174.69V677.34H151.01V661.53Z" fill="white"/>
<path d="M151.01 731.56H190.5V771.05H174.69V747.37H151.01V731.56Z" fill="white"/>
<g opacity="0.3">
<path opacity="0.3" d="M151.01 1011.69H190.5V1051.18H174.69V1027.5H151.01V1011.69Z" fill="white"/>
</g>
<path d="M151.01 871.63H190.5V911.12H174.69V887.44H151.01V871.63Z" fill="white"/>
<path d="M151.01 941.66H190.5V981.15H174.69V957.47H151.01V941.66Z" fill="white"/>
<path d="M213.57 171.3H253.06V210.79H237.25V187.11H213.57V171.3Z" fill="white"/>
<g opacity="0.3">
<path opacity="0.3" d="M213.57 31.24H253.06V70.73H237.25V47.05H213.57V31.24Z" fill="white"/>
</g>
<g opacity="0.6">
<path opacity="0.6" d="M213.57 101.27H253.06V140.76H237.25V117.08H213.57V101.27Z" fill="white"/>
</g>
<path d="M213.57 381.4H253.06V420.89H237.25V397.21H213.57V381.4Z" fill="white"/>
<g opacity="0.3">
<path opacity="0.3" d="M213.57 241.34H253.06V280.83H237.25V257.15H213.57V241.34Z" fill="white"/>
</g>
<g opacity="0.6">
<path opacity="0.6" d="M213.57 311.37H253.06V350.86H237.25V327.18H213.57V311.37Z" fill="white"/>
</g>
<path d="M213.57 591.5H253.06V630.99H237.25V607.31H213.57V591.5Z" fill="white"/>
<g opacity="0.3">
<path opacity="0.3" d="M213.57 451.43H253.06V490.92H237.25V467.24H213.57V451.43Z" fill="white"/>
</g>
<g opacity="0.6">
<path opacity="0.6" d="M213.57 521.47H253.06V560.95H237.25V537.27H213.57V521.47Z" fill="white"/>
</g>
<path d="M213.57 801.59H253.06V841.08H237.25V817.4H213.57V801.59Z" fill="white"/>
<g opacity="0.3">
<path opacity="0.3" d="M213.57 661.53H253.06V701.02H237.25V677.34H213.57V661.53Z" fill="white"/>
</g>
<g opacity="0.6">
<path opacity="0.6" d="M213.57 731.56H253.06V771.05H237.25V747.37H213.57V731.56Z" fill="white"/>
</g>
<path d="M213.57 1011.69H253.06V1051.18H237.25V1027.5H213.57V1011.69Z" fill="white"/>
<g opacity="0.3">
<path opacity="0.3" d="M213.57 871.63H253.06V911.12H237.25V887.44H213.57V871.63Z" fill="white"/>
</g>
<g opacity="0.6">
<path opacity="0.6" d="M213.57 941.66H253.06V981.15H237.25V957.47H213.57V941.66Z" fill="white"/>
</g>
<path d="M276.13 171.3H315.62V210.79H299.81V187.11H276.13V171.3Z" fill="white"/>
<path d="M276.13 31.24H315.62V70.73H299.81V47.05H276.13V31.24Z" fill="white"/>
<g opacity="0.3">
<path opacity="0.3" d="M276.13 101.27H315.62V140.76H299.81V117.08H276.13V101.27Z" fill="white"/>
</g>
<path d="M276.13 381.4H315.62V420.89H299.81V397.21H276.13V381.4Z" fill="white"/>
<path d="M276.13 241.34H315.62V280.83H299.81V257.15H276.13V241.34Z" fill="white"/>
<g opacity="0.3">
<path opacity="0.3" d="M276.13 311.37H315.62V350.86H299.81V327.18H276.13V311.37Z" fill="white"/>
</g>
<path d="M276.13 591.5H315.62V630.99H299.81V607.31H276.13V591.5Z" fill="white"/>
<path d="M276.13 451.43H315.62V490.92H299.81V467.24H276.13V451.43Z" fill="white"/>
<g opacity="0.3">
<path opacity="0.3" d="M276.13 521.47H315.62V560.95H299.81V537.27H276.13V521.47Z" fill="white"/>
</g>
<path d="M276.13 801.59H315.62V841.08H299.81V817.4H276.13V801.59Z" fill="white"/>
<path d="M276.13 661.53H315.62V701.02H299.81V677.34H276.13V661.53Z" fill="white"/>
<g opacity="0.3">
<path opacity="0.3" d="M276.13 731.56H315.62V771.05H299.81V747.37H276.13V731.56Z" fill="white"/>
</g>
<path d="M276.13 1011.69H315.62V1051.18H299.81V1027.5H276.13V1011.69Z" fill="white"/>
<path d="M276.13 871.63H315.62V911.12H299.81V887.44H276.13V871.63Z" fill="white"/>
<g opacity="0.3">
<path opacity="0.3" d="M276.13 941.66H315.62V981.15H299.81V957.47H276.13V941.66Z" fill="white"/>
</g>
<path d="M401.25 171.3H440.74V210.79H424.93V187.11H401.25V171.3Z" fill="white"/>
<g opacity="0.6">
<path opacity="0.6" d="M401.25 31.24H440.74V70.73H424.93V47.05H401.25V31.24Z" fill="white"/>
</g>
<path d="M401.25 101.27H440.74V140.76H424.93V117.08H401.25V101.27Z" fill="white"/>
<path d="M401.25 381.4H440.74V420.89H424.93V397.21H401.25V381.4Z" fill="white"/>
<g opacity="0.6">
<path opacity="0.6" d="M401.25 241.34H440.74V280.83H424.93V257.15H401.25V241.34Z" fill="white"/>
</g>
<path d="M401.25 311.37H440.74V350.86H424.93V327.18H401.25V311.37Z" fill="white"/>
<path d="M401.25 591.5H440.74V630.99H424.93V607.31H401.25V591.5Z" fill="white"/>
<g opacity="0.6">
<path opacity="0.6" d="M401.25 451.43H440.74V490.92H424.93V467.24H401.25V451.43Z" fill="white"/>
</g>
<path d="M401.25 521.47H440.74V560.95H424.93V537.27H401.25V521.47Z" fill="white"/>
<path d="M401.25 801.59H440.74V841.08H424.93V817.4H401.25V801.59Z" fill="white"/>
<g opacity="0.6">
<path opacity="0.6" d="M401.25 661.53H440.74V701.02H424.93V677.34H401.25V661.53Z" fill="white"/>
</g>
<path d="M401.25 731.56H440.74V771.05H424.93V747.37H401.25V731.56Z" fill="white"/>
<path d="M401.25 1011.69H440.74V1051.18H424.93V1027.5H401.25V1011.69Z" fill="white"/>
<g opacity="0.6">
<path opacity="0.6" d="M401.25 871.63H440.74V911.12H424.93V887.44H401.25V871.63Z" fill="white"/>
</g>
<path d="M401.25 941.66H440.74V981.15H424.93V957.47H401.25V941.66Z" fill="white"/>
<g opacity="0.3">
<path opacity="0.3" d="M463.811 171.3H503.301V210.79H487.491V187.11H463.811V171.3Z" fill="white"/>
</g>
<path d="M463.811 31.24H503.301V70.73H487.491V47.05H463.811V31.24Z" fill="white"/>
<path d="M463.811 101.27H503.301V140.76H487.491V117.08H463.811V101.27Z" fill="white"/>
<g opacity="0.3">
<path opacity="0.3" d="M463.811 381.4H503.301V420.89H487.491V397.21H463.811V381.4Z" fill="white"/>
</g>
<path d="M463.811 241.34H503.301V280.83H487.491V257.15H463.811V241.34Z" fill="white"/>
<path d="M463.811 311.37H503.301V350.86H487.491V327.18H463.811V311.37Z" fill="white"/>
<g opacity="0.3">
<path opacity="0.3" d="M463.811 591.5H503.301V630.99H487.491V607.31H463.811V591.5Z" fill="white"/>
</g>
<path d="M463.811 451.43H503.301V490.92H487.491V467.24H463.811V451.43Z" fill="white"/>
<path d="M463.811 521.47H503.301V560.95H487.491V537.27H463.811V521.47Z" fill="white"/>
<g opacity="0.3">
<path opacity="0.3" d="M463.811 801.59H503.301V841.08H487.491V817.4H463.811V801.59Z" fill="white"/>
</g>
<path d="M463.811 661.53H503.301V701.02H487.491V677.34H463.811V661.53Z" fill="white"/>
<path d="M463.811 731.56H503.301V771.05H487.491V747.37H463.811V731.56Z" fill="white"/>
<g opacity="0.3">
<path opacity="0.3" d="M463.811 1011.69H503.301V1051.18H487.491V1027.5H463.811V1011.69Z" fill="white"/>
</g>
<path d="M463.811 871.63H503.301V911.12H487.491V887.44H463.811V871.63Z" fill="white"/>
<path d="M463.811 941.66H503.301V981.15H487.491V957.47H463.811V941.66Z" fill="white"/>
<path d="M526.37 171.3H565.86V210.79H550.05V187.11H526.37V171.3Z" fill="white"/>
<g opacity="0.3">
<path opacity="0.3" d="M526.37 31.24H565.86V70.73H550.05V47.05H526.37V31.24Z" fill="white"/>
</g>
<g opacity="0.6">
<path opacity="0.6" d="M526.37 101.27H565.86V140.76H550.05V117.08H526.37V101.27Z" fill="white"/>
</g>
<path d="M526.37 381.4H565.86V420.89H550.05V397.21H526.37V381.4Z" fill="white"/>
<g opacity="0.3">
<path opacity="0.3" d="M526.37 241.34H565.86V280.83H550.05V257.15H526.37V241.34Z" fill="white"/>
</g>
<g opacity="0.6">
<path opacity="0.6" d="M526.37 311.37H565.86V350.86H550.05V327.18H526.37V311.37Z" fill="white"/>
</g>
<path d="M526.37 591.5H565.86V630.99H550.05V607.31H526.37V591.5Z" fill="white"/>
<g opacity="0.3">
<path opacity="0.3" d="M526.37 451.43H565.86V490.92H550.05V467.24H526.37V451.43Z" fill="white"/>
</g>
<g opacity="0.6">
<path opacity="0.6" d="M526.37 521.47H565.86V560.95H550.05V537.27H526.37V521.47Z" fill="white"/>
</g>
<path d="M526.37 801.59H565.86V841.08H550.05V817.4H526.37V801.59Z" fill="white"/>
<g opacity="0.3">
<path opacity="0.3" d="M526.37 661.53H565.86V701.02H550.05V677.34H526.37V661.53Z" fill="white"/>
</g>
<g opacity="0.6">
<path opacity="0.6" d="M526.37 731.56H565.86V771.05H550.05V747.37H526.37V731.56Z" fill="white"/>
</g>
<path d="M526.37 1011.69H565.86V1051.18H550.05V1027.5H526.37V1011.69Z" fill="white"/>
<g opacity="0.3">
<path opacity="0.3" d="M526.37 871.63H565.86V911.12H550.05V887.44H526.37V871.63Z" fill="white"/>
</g>
<g opacity="0.6">
<path opacity="0.6" d="M526.37 941.66H565.86V981.15H550.05V957.47H526.37V941.66Z" fill="white"/>
</g>
<path d="M588.93 171.3H628.42V210.79H612.61V187.11H588.93V171.3Z" fill="white"/>
<path d="M588.93 31.24H628.42V70.73H612.61V47.05H588.93V31.24Z" fill="white"/>
<g opacity="0.3">
<path opacity="0.3" d="M588.93 101.27H628.42V140.76H612.61V117.08H588.93V101.27Z" fill="white"/>
</g>
<path d="M588.93 381.4H628.42V420.89H612.61V397.21H588.93V381.4Z" fill="white"/>
<path d="M588.93 241.34H628.42V280.83H612.61V257.15H588.93V241.34Z" fill="white"/>
<g opacity="0.3">
<path opacity="0.3" d="M588.93 311.37H628.42V350.86H612.61V327.18H588.93V311.37Z" fill="white"/>
</g>
<path d="M588.93 591.5H628.42V630.99H612.61V607.31H588.93V591.5Z" fill="white"/>
<path d="M588.93 451.43H628.42V490.92H612.61V467.24H588.93V451.43Z" fill="white"/>
<g opacity="0.3">
<path opacity="0.3" d="M588.93 521.47H628.42V560.95H612.61V537.27H588.93V521.47Z" fill="white"/>
</g>
<path d="M588.93 801.59H628.42V841.08H612.61V817.4H588.93V801.59Z" fill="white"/>
<path d="M588.93 661.53H628.42V701.02H612.61V677.34H588.93V661.53Z" fill="white"/>
<g opacity="0.3">
<path opacity="0.3" d="M588.93 731.56H628.42V771.05H612.61V747.37H588.93V731.56Z" fill="white"/>
</g>
<path d="M588.93 1011.69H628.42V1051.18H612.61V1027.5H588.93V1011.69Z" fill="white"/>
<path d="M588.93 871.63H628.42V911.12H612.61V887.44H588.93V871.63Z" fill="white"/>
<g opacity="0.3">
<path opacity="0.3" d="M588.93 941.66H628.42V981.15H612.61V957.47H588.93V941.66Z" fill="white"/>
</g>
<path d="M338.69 171.3H378.18V210.79H362.37V187.11H338.69V171.3Z" fill="white"/>
<path d="M338.69 31.24H378.18V70.73H362.37V47.05H338.69V31.24Z" fill="white"/>
<g opacity="0.3">
<path opacity="0.3" d="M338.69 101.27H378.18V140.76H362.37V117.08H338.69V101.27Z" fill="white"/>
</g>
<path d="M338.69 381.4H378.18V420.89H362.37V397.21H338.69V381.4Z" fill="white"/>
<path d="M338.69 241.34H378.18V280.83H362.37V257.15H338.69V241.34Z" fill="white"/>
<g opacity="0.3">
<path opacity="0.3" d="M338.69 311.37H378.18V350.86H362.37V327.18H338.69V311.37Z" fill="white"/>
</g>
<path d="M338.69 591.5H378.18V630.99H362.37V607.31H338.69V591.5Z" fill="white"/>
<path d="M338.69 451.43H378.18V490.92H362.37V467.24H338.69V451.43Z" fill="white"/>
<g opacity="0.3">
<path opacity="0.3" d="M338.69 521.47H378.18V560.95H362.37V537.27H338.69V521.47Z" fill="white"/>
</g>
<path d="M338.69 801.59H378.18V841.08H362.37V817.4H338.69V801.59Z" fill="white"/>
<path d="M338.69 661.53H378.18V701.02H362.37V677.34H338.69V661.53Z" fill="white"/>
<g opacity="0.3">
<path opacity="0.3" d="M338.69 731.56H378.18V771.05H362.37V747.37H338.69V731.56Z" fill="white"/>
</g>
<path d="M338.69 1011.69H378.18V1051.18H362.37V1027.5H338.69V1011.69Z" fill="white"/>
<path d="M338.69 871.63H378.18V911.12H362.37V887.44H338.69V871.63Z" fill="white"/>
<g opacity="0.3">
<path opacity="0.3" d="M338.69 941.66H378.18V981.15H362.37V957.47H338.69V941.66Z" fill="white"/>
</g>
<path d="M714.05 171.3H753.54V210.79H737.73V187.11H714.05V171.3Z" fill="white"/>
<g opacity="0.6">
<path opacity="0.6" d="M714.05 31.24H753.54V70.73H737.73V47.05H714.05V31.24Z" fill="white"/>
</g>
<path d="M714.05 101.27H753.54V140.76H737.73V117.08H714.05V101.27Z" fill="white"/>
<path d="M714.05 381.4H753.54V420.89H737.73V397.21H714.05V381.4Z" fill="white"/>
<g opacity="0.6">
<path opacity="0.6" d="M714.05 241.34H753.54V280.83H737.73V257.15H714.05V241.34Z" fill="white"/>
</g>
<path d="M714.05 311.37H753.54V350.86H737.73V327.18H714.05V311.37Z" fill="white"/>
<path d="M714.05 591.5H753.54V630.99H737.73V607.31H714.05V591.5Z" fill="white"/>
<g opacity="0.6">
<path opacity="0.6" d="M714.05 451.43H753.54V490.92H737.73V467.24H714.05V451.43Z" fill="white"/>
</g>
<path d="M714.05 521.47H753.54V560.95H737.73V537.27H714.05V521.47Z" fill="white"/>
<path d="M714.05 801.59H753.54V841.08H737.73V817.4H714.05V801.59Z" fill="white"/>
<g opacity="0.6">
<path opacity="0.6" d="M714.05 661.53H753.54V701.02H737.73V677.34H714.05V661.53Z" fill="white"/>
</g>
<path d="M714.05 731.56H753.54V771.05H737.73V747.37H714.05V731.56Z" fill="white"/>
<path d="M714.05 1011.69H753.54V1051.18H737.73V1027.5H714.05V1011.69Z" fill="white"/>
<g opacity="0.6">
<path opacity="0.6" d="M714.05 871.63H753.54V911.12H737.73V887.44H714.05V871.63Z" fill="white"/>
</g>
<path d="M714.05 941.66H753.54V981.15H737.73V957.47H714.05V941.66Z" fill="white"/>
<g opacity="0.3">
<path opacity="0.3" d="M776.61 171.3H816.1V210.79H800.29V187.11H776.61V171.3Z" fill="white"/>
</g>
<path d="M776.61 31.24H816.1V70.73H800.29V47.05H776.61V31.24Z" fill="white"/>
<path d="M776.61 101.27H816.1V140.76H800.29V117.08H776.61V101.27Z" fill="white"/>
<g opacity="0.3">
<path opacity="0.3" d="M776.61 381.4H816.1V420.89H800.29V397.21H776.61V381.4Z" fill="white"/>
</g>
<path d="M776.61 241.34H816.1V280.83H800.29V257.15H776.61V241.34Z" fill="white"/>
<path d="M776.61 311.37H816.1V350.86H800.29V327.18H776.61V311.37Z" fill="white"/>
<g opacity="0.3">
<path opacity="0.3" d="M776.61 591.5H816.1V630.99H800.29V607.31H776.61V591.5Z" fill="white"/>
</g>
<path d="M776.61 451.43H816.1V490.92H800.29V467.24H776.61V451.43Z" fill="white"/>
<path d="M776.61 521.47H816.1V560.95H800.29V537.27H776.61V521.47Z" fill="white"/>
<g opacity="0.3">
<path opacity="0.3" d="M776.61 801.59H816.1V841.08H800.29V817.4H776.61V801.59Z" fill="white"/>
</g>
<path d="M776.61 661.53H816.1V701.02H800.29V677.34H776.61V661.53Z" fill="white"/>
<path d="M776.61 731.56H816.1V771.05H800.29V747.37H776.61V731.56Z" fill="white"/>
<g opacity="0.3">
<path opacity="0.3" d="M776.61 1011.69H816.1V1051.18H800.29V1027.5H776.61V1011.69Z" fill="white"/>
</g>
<path d="M776.61 871.63H816.1V911.12H800.29V887.44H776.61V871.63Z" fill="white"/>
<path d="M776.61 941.66H816.1V981.15H800.29V957.47H776.61V941.66Z" fill="white"/>
<path d="M839.17 171.3H878.66V210.79H862.85V187.11H839.17V171.3Z" fill="white"/>
<g opacity="0.3">
<path opacity="0.3" d="M839.17 31.24H878.66V70.73H862.85V47.05H839.17V31.24Z" fill="white"/>
</g>
<g opacity="0.6">
<path opacity="0.6" d="M839.17 101.27H878.66V140.76H862.85V117.08H839.17V101.27Z" fill="white"/>
</g>
<path d="M839.17 381.4H878.66V420.89H862.85V397.21H839.17V381.4Z" fill="white"/>
<g opacity="0.3">
<path opacity="0.3" d="M839.17 241.34H878.66V280.83H862.85V257.15H839.17V241.34Z" fill="white"/>
</g>
<g opacity="0.6">
<path opacity="0.6" d="M839.17 311.37H878.66V350.86H862.85V327.18H839.17V311.37Z" fill="white"/>
</g>
<path d="M839.17 591.5H878.66V630.99H862.85V607.31H839.17V591.5Z" fill="white"/>
<g opacity="0.3">
<path opacity="0.3" d="M839.17 451.43H878.66V490.92H862.85V467.24H839.17V451.43Z" fill="white"/>
</g>
<g opacity="0.6">
<path opacity="0.6" d="M839.17 521.47H878.66V560.95H862.85V537.27H839.17V521.47Z" fill="white"/>
</g>
<path d="M839.17 801.59H878.66V841.08H862.85V817.4H839.17V801.59Z" fill="white"/>
<g opacity="0.3">
<path opacity="0.3" d="M839.17 661.53H878.66V701.02H862.85V677.34H839.17V661.53Z" fill="white"/>
</g>
<g opacity="0.6">
<path opacity="0.6" d="M839.17 731.56H878.66V771.05H862.85V747.37H839.17V731.56Z" fill="white"/>
</g>
<path d="M839.17 1011.69H878.66V1051.18H862.85V1027.5H839.17V1011.69Z" fill="white"/>
<g opacity="0.3">
<path opacity="0.3" d="M839.17 871.63H878.66V911.12H862.85V887.44H839.17V871.63Z" fill="white"/>
</g>
<g opacity="0.6">
<path opacity="0.6" d="M839.17 941.66H878.66V981.15H862.85V957.47H839.17V941.66Z" fill="white"/>
</g>
<path d="M901.73 171.3H941.22V210.79H925.411V187.11H901.73V171.3Z" fill="white"/>
<path d="M901.73 31.24H941.22V70.73H925.411V47.05H901.73V31.24Z" fill="white"/>
<g opacity="0.3">
<path opacity="0.3" d="M901.73 101.27H941.22V140.76H925.411V117.08H901.73V101.27Z" fill="white"/>
</g>
<path d="M901.73 381.4H941.22V420.89H925.411V397.21H901.73V381.4Z" fill="white"/>
<path d="M901.73 241.34H941.22V280.83H925.411V257.15H901.73V241.34Z" fill="white"/>
<g opacity="0.3">
<path opacity="0.3" d="M901.73 311.37H941.22V350.86H925.411V327.18H901.73V311.37Z" fill="white"/>
</g>
<path d="M901.73 591.5H941.22V630.99H925.411V607.31H901.73V591.5Z" fill="white"/>
<path d="M901.73 451.43H941.22V490.92H925.411V467.24H901.73V451.43Z" fill="white"/>
<g opacity="0.3">
<path opacity="0.3" d="M901.73 521.47H941.22V560.95H925.411V537.27H901.73V521.47Z" fill="white"/>
</g>
<path d="M901.73 801.59H941.22V841.08H925.411V817.4H901.73V801.59Z" fill="white"/>
<path d="M901.73 661.53H941.22V701.02H925.411V677.34H901.73V661.53Z" fill="white"/>
<g opacity="0.3">
<path opacity="0.3" d="M901.73 731.56H941.22V771.05H925.411V747.37H901.73V731.56Z" fill="white"/>
</g>
<path d="M901.73 1011.69H941.22V1051.18H925.411V1027.5H901.73V1011.69Z" fill="white"/>
<path d="M901.73 871.63H941.22V911.12H925.411V887.44H901.73V871.63Z" fill="white"/>
<g opacity="0.3">
<path opacity="0.3" d="M901.73 941.66H941.22V981.15H925.411V957.47H901.73V941.66Z" fill="white"/>
</g>
<path d="M651.49 171.3H690.98V210.79H675.17V187.11H651.49V171.3Z" fill="white"/>
<path d="M651.49 31.24H690.98V70.73H675.17V47.05H651.49V31.24Z" fill="white"/>
<g opacity="0.3">
<path opacity="0.3" d="M651.49 101.27H690.98V140.76H675.17V117.08H651.49V101.27Z" fill="white"/>
</g>
<path d="M651.49 381.4H690.98V420.89H675.17V397.21H651.49V381.4Z" fill="white"/>
<path d="M651.49 241.34H690.98V280.83H675.17V257.15H651.49V241.34Z" fill="white"/>
<g opacity="0.3">
<path opacity="0.3" d="M651.49 311.37H690.98V350.86H675.17V327.18H651.49V311.37Z" fill="white"/>
</g>
<path d="M651.49 591.5H690.98V630.99H675.17V607.31H651.49V591.5Z" fill="white"/>
<path d="M651.49 451.43H690.98V490.92H675.17V467.24H651.49V451.43Z" fill="white"/>
<g opacity="0.3">
<path opacity="0.3" d="M651.49 521.47H690.98V560.95H675.17V537.27H651.49V521.47Z" fill="white"/>
</g>
<path d="M651.49 801.59H690.98V841.08H675.17V817.4H651.49V801.59Z" fill="white"/>
<path d="M651.49 661.53H690.98V701.02H675.17V677.34H651.49V661.53Z" fill="white"/>
<g opacity="0.3">
<path opacity="0.3" d="M651.49 731.56H690.98V771.05H675.17V747.37H651.49V731.56Z" fill="white"/>
</g>
<path d="M651.49 1011.69H690.98V1051.18H675.17V1027.5H651.49V1011.69Z" fill="white"/>
<path d="M651.49 871.63H690.98V911.12H675.17V887.44H651.49V871.63Z" fill="white"/>
<g opacity="0.3">
<path opacity="0.3" d="M651.49 941.66H690.98V981.15H675.17V957.47H651.49V941.66Z" fill="white"/>
</g>
<path d="M964.29 171.3H1003.78V210.79H987.97V187.11H964.29V171.3Z" fill="white"/>
<path d="M964.29 31.24H1003.78V70.73H987.97V47.05H964.29V31.24Z" fill="white"/>
<g opacity="0.3">
<path opacity="0.3" d="M964.29 101.27H1003.78V140.76H987.97V117.08H964.29V101.27Z" fill="white"/>
</g>
<path d="M964.29 381.4H1003.78V420.89H987.97V397.21H964.29V381.4Z" fill="white"/>
<path d="M964.29 241.34H1003.78V280.83H987.97V257.15H964.29V241.34Z" fill="white"/>
<g opacity="0.3">
<path opacity="0.3" d="M964.29 311.37H1003.78V350.86H987.97V327.18H964.29V311.37Z" fill="white"/>
</g>
<path d="M964.29 591.5H1003.78V630.99H987.97V607.31H964.29V591.5Z" fill="white"/>
<path d="M964.29 451.43H1003.78V490.92H987.97V467.24H964.29V451.43Z" fill="white"/>
<g opacity="0.3">
<path opacity="0.3" d="M964.29 521.47H1003.78V560.95H987.97V537.27H964.29V521.47Z" fill="white"/>
</g>
<path d="M964.29 801.59H1003.78V841.08H987.97V817.4H964.29V801.59Z" fill="white"/>
<path d="M964.29 661.53H1003.78V701.02H987.97V677.34H964.29V661.53Z" fill="white"/>
<g opacity="0.3">
<path opacity="0.3" d="M964.29 731.56H1003.78V771.05H987.97V747.37H964.29V731.56Z" fill="white"/>
</g>
<path d="M964.29 1011.69H1003.78V1051.18H987.97V1027.5H964.29V1011.69Z" fill="white"/>
<path d="M964.29 871.63H1003.78V911.12H987.97V887.44H964.29V871.63Z" fill="white"/>
<g opacity="0.3">
<path opacity="0.3" d="M964.29 941.66H1003.78V981.15H987.97V957.47H964.29V941.66Z" fill="white"/>
</g>
<path d="M1026.85 171.3H1066.34V210.79H1050.53V187.11H1026.85V171.3Z" fill="white"/>
<g opacity="0.6">
<path opacity="0.6" d="M1026.85 31.24H1066.34V70.73H1050.53V47.05H1026.85V31.24Z" fill="white"/>
</g>
<path d="M1026.85 101.27H1066.34V140.76H1050.53V117.08H1026.85V101.27Z" fill="white"/>
<path d="M1026.85 381.4H1066.34V420.89H1050.53V397.21H1026.85V381.4Z" fill="white"/>
<g opacity="0.6">
<path opacity="0.6" d="M1026.85 241.34H1066.34V280.83H1050.53V257.15H1026.85V241.34Z" fill="white"/>
</g>
<path d="M1026.85 311.37H1066.34V350.86H1050.53V327.18H1026.85V311.37Z" fill="white"/>
<path d="M1026.85 591.5H1066.34V630.99H1050.53V607.31H1026.85V591.5Z" fill="white"/>
<g opacity="0.6">
<path opacity="0.6" d="M1026.85 451.43H1066.34V490.92H1050.53V467.24H1026.85V451.43Z" fill="white"/>
</g>
<path d="M1026.85 521.47H1066.34V560.95H1050.53V537.27H1026.85V521.47Z" fill="white"/>
<path d="M1026.85 801.59H1066.34V841.08H1050.53V817.4H1026.85V801.59Z" fill="white"/>
<g opacity="0.6">
<path opacity="0.6" d="M1026.85 661.53H1066.34V701.02H1050.53V677.34H1026.85V661.53Z" fill="white"/>
</g>
<path d="M1026.85 731.56H1066.34V771.05H1050.53V747.37H1026.85V731.56Z" fill="white"/>
<path d="M1026.85 1011.69H1066.34V1051.18H1050.53V1027.5H1026.85V1011.69Z" fill="white"/>
<g opacity="0.6">
<path opacity="0.6" d="M1026.85 871.63H1066.34V911.12H1050.53V887.44H1026.85V871.63Z" fill="white"/>
</g>
<path d="M1026.85 941.66H1066.34V981.15H1050.53V957.47H1026.85V941.66Z" fill="white"/>
<g opacity="0.3">
<path opacity="0.3" d="M1089.41 171.3H1128.9V210.79H1113.09V187.11H1089.41V171.3Z" fill="white"/>
</g>
<path d="M1089.41 31.24H1128.9V70.73H1113.09V47.05H1089.41V31.24Z" fill="white"/>
<path d="M1089.41 101.27H1128.9V140.76H1113.09V117.08H1089.41V101.27Z" fill="white"/>
<g opacity="0.3">
<path opacity="0.3" d="M1089.41 381.4H1128.9V420.89H1113.09V397.21H1089.41V381.4Z" fill="white"/>
</g>
<path d="M1089.41 241.34H1128.9V280.83H1113.09V257.15H1089.41V241.34Z" fill="white"/>
<path d="M1089.41 311.37H1128.9V350.86H1113.09V327.18H1089.41V311.37Z" fill="white"/>
<g opacity="0.3">
<path opacity="0.3" d="M1089.41 591.5H1128.9V630.99H1113.09V607.31H1089.41V591.5Z" fill="white"/>
</g>
<path d="M1089.41 451.43H1128.9V490.92H1113.09V467.24H1089.41V451.43Z" fill="white"/>
<path d="M1089.41 521.47H1128.9V560.95H1113.09V537.27H1089.41V521.47Z" fill="white"/>
<g opacity="0.3">
<path opacity="0.3" d="M1089.41 801.59H1128.9V841.08H1113.09V817.4H1089.41V801.59Z" fill="white"/>
</g>
<path d="M1089.41 661.53H1128.9V701.02H1113.09V677.34H1089.41V661.53Z" fill="white"/>
<path d="M1089.41 731.56H1128.9V771.05H1113.09V747.37H1089.41V731.56Z" fill="white"/>
<g opacity="0.3">
<path opacity="0.3" d="M1089.41 1011.69H1128.9V1051.18H1113.09V1027.5H1089.41V1011.69Z" fill="white"/>
</g>
<path d="M1089.41 871.63H1128.9V911.12H1113.09V887.44H1089.41V871.63Z" fill="white"/>
<path d="M1089.41 941.66H1128.9V981.15H1113.09V957.47H1089.41V941.66Z" fill="white"/>
<path d="M1151.97 171.3H1191.46V210.79H1175.65V187.11H1151.97V171.3Z" fill="white"/>
<g opacity="0.3">
<path opacity="0.3" d="M1151.97 31.24H1191.46V70.73H1175.65V47.05H1151.97V31.24Z" fill="white"/>
</g>
<g opacity="0.6">
<path opacity="0.6" d="M1151.97 101.27H1191.46V140.76H1175.65V117.08H1151.97V101.27Z" fill="white"/>
</g>
<path d="M1151.97 381.4H1191.46V420.89H1175.65V397.21H1151.97V381.4Z" fill="white"/>
<g opacity="0.3">
<path opacity="0.3" d="M1151.97 241.34H1191.46V280.83H1175.65V257.15H1151.97V241.34Z" fill="white"/>
</g>
<g opacity="0.6">
<path opacity="0.6" d="M1151.97 311.37H1191.46V350.86H1175.65V327.18H1151.97V311.37Z" fill="white"/>
</g>
<path d="M1151.97 591.5H1191.46V630.99H1175.65V607.31H1151.97V591.5Z" fill="white"/>
<g opacity="0.3">
<path opacity="0.3" d="M1151.97 451.43H1191.46V490.92H1175.65V467.24H1151.97V451.43Z" fill="white"/>
</g>
<g opacity="0.6">
<path opacity="0.6" d="M1151.97 521.47H1191.46V560.95H1175.65V537.27H1151.97V521.47Z" fill="white"/>
</g>
<path d="M1151.97 801.59H1191.46V841.08H1175.65V817.4H1151.97V801.59Z" fill="white"/>
<g opacity="0.3">
<path opacity="0.3" d="M1151.97 661.53H1191.46V701.02H1175.65V677.34H1151.97V661.53Z" fill="white"/>
</g>
<g opacity="0.6">
<path opacity="0.6" d="M1151.97 731.56H1191.46V771.05H1175.65V747.37H1151.97V731.56Z" fill="white"/>
</g>
<path d="M1151.97 1011.69H1191.46V1051.18H1175.65V1027.5H1151.97V1011.69Z" fill="white"/>
<g opacity="0.3">
<path opacity="0.3" d="M1151.97 871.63H1191.46V911.12H1175.65V887.44H1151.97V871.63Z" fill="white"/>
</g>
<g opacity="0.6">
<path opacity="0.6" d="M1151.97 941.66H1191.46V981.15H1175.65V957.47H1151.97V941.66Z" fill="white"/>
</g>
<path d="M1214.53 171.3H1254.02V210.79H1238.21V187.11H1214.53V171.3Z" fill="white"/>
<path d="M1214.53 31.24H1254.02V70.73H1238.21V47.05H1214.53V31.24Z" fill="white"/>
<g opacity="0.3">
<path opacity="0.3" d="M1214.53 101.27H1254.02V140.76H1238.21V117.08H1214.53V101.27Z" fill="white"/>
</g>
<path d="M1214.53 381.4H1254.02V420.89H1238.21V397.21H1214.53V381.4Z" fill="white"/>
<path d="M1214.53 241.34H1254.02V280.83H1238.21V257.15H1214.53V241.34Z" fill="white"/>
<g opacity="0.3">
<path opacity="0.3" d="M1214.53 311.37H1254.02V350.86H1238.21V327.18H1214.53V311.37Z" fill="white"/>
</g>
<path d="M1214.53 591.5H1254.02V630.99H1238.21V607.31H1214.53V591.5Z" fill="white"/>
<path d="M1214.53 451.43H1254.02V490.92H1238.21V467.24H1214.53V451.43Z" fill="white"/>
<g opacity="0.3">
<path opacity="0.3" d="M1214.53 521.47H1254.02V560.95H1238.21V537.27H1214.53V521.47Z" fill="white"/>
</g>
<path d="M1214.53 801.59H1254.02V841.08H1238.21V817.4H1214.53V801.59Z" fill="white"/>
<path d="M1214.53 661.53H1254.02V701.02H1238.21V677.34H1214.53V661.53Z" fill="white"/>
<g opacity="0.3">
<path opacity="0.3" d="M1214.53 731.56H1254.02V771.05H1238.21V747.37H1214.53V731.56Z" fill="white"/>
</g>
<path d="M1214.53 1011.69H1254.02V1051.18H1238.21V1027.5H1214.53V1011.69Z" fill="white"/>
<path d="M1214.53 871.63H1254.02V911.12H1238.21V887.44H1214.53V871.63Z" fill="white"/>
<g opacity="0.3">
<path opacity="0.3" d="M1214.53 941.66H1254.02V981.15H1238.21V957.47H1214.53V941.66Z" fill="white"/>
</g>
<path d="M1277.09 171.3H1316.58V210.79H1300.77V187.11H1277.09V171.3Z" fill="white"/>
<path d="M1277.09 31.24H1316.58V70.73H1300.77V47.05H1277.09V31.24Z" fill="white"/>
<g opacity="0.3">
<path opacity="0.3" d="M1277.09 101.27H1316.58V140.76H1300.77V117.08H1277.09V101.27Z" fill="white"/>
</g>
<path d="M1277.09 381.4H1316.58V420.89H1300.77V397.21H1277.09V381.4Z" fill="white"/>
<path d="M1277.09 241.34H1316.58V280.83H1300.77V257.15H1277.09V241.34Z" fill="white"/>
<g opacity="0.3">
<path opacity="0.3" d="M1277.09 311.37H1316.58V350.86H1300.77V327.18H1277.09V311.37Z" fill="white"/>
</g>
<path d="M1277.09 591.5H1316.58V630.99H1300.77V607.31H1277.09V591.5Z" fill="white"/>
<path d="M1277.09 451.43H1316.58V490.92H1300.77V467.24H1277.09V451.43Z" fill="white"/>
<g opacity="0.3">
<path opacity="0.3" d="M1277.09 521.47H1316.58V560.95H1300.77V537.27H1277.09V521.47Z" fill="white"/>
</g>
<path d="M1277.09 801.59H1316.58V841.08H1300.77V817.4H1277.09V801.59Z" fill="white"/>
<path d="M1277.09 661.53H1316.58V701.02H1300.77V677.34H1277.09V661.53Z" fill="white"/>
<g opacity="0.3">
<path opacity="0.3" d="M1277.09 731.56H1316.58V771.05H1300.77V747.37H1277.09V731.56Z" fill="white"/>
</g>
<path d="M1277.09 1011.69H1316.58V1051.18H1300.77V1027.5H1277.09V1011.69Z" fill="white"/>
<path d="M1277.09 871.63H1316.58V911.12H1300.77V887.44H1277.09V871.63Z" fill="white"/>
<g opacity="0.3">
<path opacity="0.3" d="M1277.09 941.66H1316.58V981.15H1300.77V957.47H1277.09V941.66Z" fill="white"/>
</g>
<path d="M1339.66 171.3H1379.14V210.79H1363.33V187.11H1339.66V171.3Z" fill="white"/>
<g opacity="0.6">
<path opacity="0.6" d="M1339.66 31.24H1379.14V70.73H1363.33V47.05H1339.66V31.24Z" fill="white"/>
</g>
<path d="M1339.66 101.27H1379.14V140.76H1363.33V117.08H1339.66V101.27Z" fill="white"/>
<path d="M1339.66 381.4H1379.14V420.89H1363.33V397.21H1339.66V381.4Z" fill="white"/>
<g opacity="0.6">
<path opacity="0.6" d="M1339.66 241.34H1379.14V280.83H1363.33V257.15H1339.66V241.34Z" fill="white"/>
</g>
<path d="M1339.66 311.37H1379.14V350.86H1363.33V327.18H1339.66V311.37Z" fill="white"/>
<path d="M1339.66 591.5H1379.14V630.99H1363.33V607.31H1339.66V591.5Z" fill="white"/>
<g opacity="0.6">
<path opacity="0.6" d="M1339.66 451.43H1379.14V490.92H1363.33V467.24H1339.66V451.43Z" fill="white"/>
</g>
<path d="M1339.66 521.47H1379.14V560.95H1363.33V537.27H1339.66V521.47Z" fill="white"/>
<path d="M1339.66 801.59H1379.14V841.08H1363.33V817.4H1339.66V801.59Z" fill="white"/>
<g opacity="0.6">
<path opacity="0.6" d="M1339.66 661.53H1379.14V701.02H1363.33V677.34H1339.66V661.53Z" fill="white"/>
</g>
<path d="M1339.66 731.56H1379.14V771.05H1363.33V747.37H1339.66V731.56Z" fill="white"/>
<path d="M1339.66 1011.69H1379.14V1051.18H1363.33V1027.5H1339.66V1011.69Z" fill="white"/>
<g opacity="0.6">
<path opacity="0.6" d="M1339.66 871.63H1379.14V911.12H1363.33V887.44H1339.66V871.63Z" fill="white"/>
</g>
<path d="M1339.66 941.66H1379.14V981.15H1363.33V957.47H1339.66V941.66Z" fill="white"/>
<g opacity="0.3">
<path opacity="0.3" d="M1402.22 171.3H1441.7V210.79H1425.9V187.11H1402.22V171.3Z" fill="white"/>
</g>
<path d="M1402.22 31.24H1441.7V70.73H1425.9V47.05H1402.22V31.24Z" fill="white"/>
<path d="M1402.22 101.27H1441.7V140.76H1425.9V117.08H1402.22V101.27Z" fill="white"/>
<g opacity="0.3">
<path opacity="0.3" d="M1402.22 381.4H1441.7V420.89H1425.9V397.21H1402.22V381.4Z" fill="white"/>
</g>
<path d="M1402.22 241.34H1441.7V280.83H1425.9V257.15H1402.22V241.34Z" fill="white"/>
<path d="M1402.22 311.37H1441.7V350.86H1425.9V327.18H1402.22V311.37Z" fill="white"/>
<g opacity="0.3">
<path opacity="0.3" d="M1402.22 591.5H1441.7V630.99H1425.9V607.31H1402.22V591.5Z" fill="white"/>
</g>
<path d="M1402.22 451.43H1441.7V490.92H1425.9V467.24H1402.22V451.43Z" fill="white"/>
<path d="M1402.22 521.47H1441.7V560.95H1425.9V537.27H1402.22V521.47Z" fill="white"/>
<g opacity="0.3">
<path opacity="0.3" d="M1402.22 801.59H1441.7V841.08H1425.9V817.4H1402.22V801.59Z" fill="white"/>
</g>
<path d="M1402.22 661.53H1441.7V701.02H1425.9V677.34H1402.22V661.53Z" fill="white"/>
<path d="M1402.22 731.56H1441.7V771.05H1425.9V747.37H1402.22V731.56Z" fill="white"/>
<g opacity="0.3">
<path opacity="0.3" d="M1402.22 1011.69H1441.7V1051.18H1425.9V1027.5H1402.22V1011.69Z" fill="white"/>
</g>
<path d="M1402.22 871.63H1441.7V911.12H1425.9V887.44H1402.22V871.63Z" fill="white"/>
<path d="M1402.22 941.66H1441.7V981.15H1425.9V957.47H1402.22V941.66Z" fill="white"/>
<path d="M1464.78 171.3H1504.26V210.79H1488.46V187.11H1464.78V171.3Z" fill="white"/>
<g opacity="0.3">
<path opacity="0.3" d="M1464.78 31.24H1504.26V70.73H1488.46V47.05H1464.78V31.24Z" fill="white"/>
</g>
<g opacity="0.6">
<path opacity="0.6" d="M1464.78 101.27H1504.26V140.76H1488.46V117.08H1464.78V101.27Z" fill="white"/>
</g>
<path d="M1464.78 381.4H1504.26V420.89H1488.46V397.21H1464.78V381.4Z" fill="white"/>
<g opacity="0.3">
<path opacity="0.3" d="M1464.78 241.34H1504.26V280.83H1488.46V257.15H1464.78V241.34Z" fill="white"/>
</g>
<g opacity="0.6">
<path opacity="0.6" d="M1464.78 311.37H1504.26V350.86H1488.46V327.18H1464.78V311.37Z" fill="white"/>
</g>
<path d="M1464.78 591.5H1504.26V630.99H1488.46V607.31H1464.78V591.5Z" fill="white"/>
<g opacity="0.3">
<path opacity="0.3" d="M1464.78 451.43H1504.26V490.92H1488.46V467.24H1464.78V451.43Z" fill="white"/>
</g>
<g opacity="0.6">
<path opacity="0.6" d="M1464.78 521.47H1504.26V560.95H1488.46V537.27H1464.78V521.47Z" fill="white"/>
</g>
<path d="M1464.78 801.59H1504.26V841.08H1488.46V817.4H1464.78V801.59Z" fill="white"/>
<g opacity="0.3">
<path opacity="0.3" d="M1464.78 661.53H1504.26V701.02H1488.46V677.34H1464.78V661.53Z" fill="white"/>
</g>
<g opacity="0.6">
<path opacity="0.6" d="M1464.78 731.56H1504.26V771.05H1488.46V747.37H1464.78V731.56Z" fill="white"/>
</g>
<path d="M1464.78 1011.69H1504.26V1051.18H1488.46V1027.5H1464.78V1011.69Z" fill="white"/>
<g opacity="0.3">
<path opacity="0.3" d="M1464.78 871.63H1504.26V911.12H1488.46V887.44H1464.78V871.63Z" fill="white"/>
</g>
<g opacity="0.6">
<path opacity="0.6" d="M1464.78 941.66H1504.26V981.15H1488.46V957.47H1464.78V941.66Z" fill="white"/>
</g>
</g>
<defs>
<linearGradient id="paint0_linear_615_32784" x1="-0.0027" y1="541.211" x2="1530.16" y2="541.211" gradientUnits="userSpaceOnUse">
<stop stop-color="#FFCDD2"/>
<stop offset="0.3333" stop-color="#FF6A00"/>
<stop offset="0.6667" stop-color="#E31937"/>
<stop offset="0.7483" stop-color="#DF1937"/>
<stop offset="0.8239" stop-color="#D41A38"/>
<stop offset="0.897" stop-color="#C11C3A"/>
<stop offset="0.9683" stop-color="#A71E3C"/>
<stop offset="1" stop-color="#991F3D"/>
</linearGradient>
</defs>
</svg>
